HIERARCHY
ROOT Root
{
  OFFSET 0.0 0.0 0.0
  CHANNELS 6 Xposition Yposition Zposition Zrotation Yrotation Xrotation
  JOINT Hips
  {
    OFFSET 0.0 100.0 0.0
    CHANNELS 6 Xposition Yposition Zposition Zrotation Yrotation Xrotation
    JOINT Spine1
    {
      OFFSET 5.003913 -0.037094 -0.013727
      CHANNELS 3 Zrotation Yrotation Xrotation
      JOINT Spine2
      {
        OFFSET 7.125363 -1e-06 0.0
        CHANNELS 3 Zrotation Yrotation Xrotation
        JOINT Chest
        {
          OFFSET 7.594027 1e-06 0.0
          CHANNELS 3 Zrotation Yrotation Xrotation
          JOINT Neck1
          {
            OFFSET 26.313086 -0.460272 -0.181672
            CHANNELS 3 Zrotation Yrotation Xrotation
            JOINT Neck2
            {
              OFFSET 8.045911 0.0 0.0
              CHANNELS 3 Zrotation Yrotation Xrotation
              JOINT Head
              {
                OFFSET 6.432774 0.0 0.0
                CHANNELS 3 Zrotation Yrotation Xrotation
                JOINT HeadEnd
                {
                  OFFSET 16.169773 0.06451 0.00362
                  CHANNELS 3 Zrotation Yrotation Xrotation
                }
                JOINT Jaw
                {
                  OFFSET 0.108741 3.12938 0.002639
                  CHANNELS 3 Zrotation Yrotation Xrotation
                }
                JOINT LeftEye
                {
                  OFFSET 4.45173 8.166359 3.206392
                  CHANNELS 3 Zrotation Yrotation Xrotation
                }
                JOINT RightEye
                {
                  OFFSET 4.436895 8.135758 -3.222429
                  CHANNELS 3 Zrotation Yrotation Xrotation
                }
              }
            }
          }
          JOINT LeftShoulder
          {
            OFFSET 23.218927 5.195579 1.621656
            CHANNELS 3 Zrotation Yrotation Xrotation
            JOINT LeftArm
            {
              OFFSET 15.902118 2e-06 -2e-06
              CHANNELS 3 Zrotation Yrotation Xrotation
              JOINT LeftForeArm
              {
                OFFSET 28.739307 0.0 -1e-06
                CHANNELS 3 Zrotation Yrotation Xrotation
                JOINT LeftHand
                {
                  OFFSET 27.093981 -4e-06 0.0
                  CHANNELS 3 Zrotation Yrotation Xrotation
                  JOINT LeftHandThumb1
                  {
                    OFFSET 2.276781 3.380274 0.83384
                    CHANNELS 3 Zrotation Yrotation Xrotation
                    JOINT LeftHandThumb2
                    {
                      OFFSET 4.705309 -1e-06 -1e-06
                      CHANNELS 3 Zrotation Yrotation Xrotation
                      JOINT LeftHandThumb3
                      {
                        OFFSET 2.798515 0.0 3e-06
                        CHANNELS 3 Zrotation Yrotation Xrotation
                        JOINT LeftHandThumbEnd
                        {
                          OFFSET 3.180793 4e-06 -4e-06
                          CHANNELS 3 Zrotation Yrotation Xrotation
                        }
                      }
                    }
                  }
                  JOINT LeftHandIndex1
                  {
                    OFFSET 3.247786 2.352677 0.137192
                    CHANNELS 3 Zrotation Yrotation Xrotation
                    JOINT LeftHandIndex2
                    {
                      OFFSET 6.367095 1e-06 0.0
                      CHANNELS 3 Zrotation Yrotation Xrotation
                      JOINT LeftHandIndex3
                      {
                        OFFSET 3.662364 0.0 0.0
                        CHANNELS 3 Zrotation Yrotation Xrotation
                        JOINT LeftHandIndex4
                        {
                          OFFSET 2.329242 4e-06 -4e-06
                          CHANNELS 3 Zrotation Yrotation Xrotation
                          JOINT LeftHandIndexEnd
                          {
                            OFFSET 2.767823 1e-06 0.0
                            CHANNELS 3 Zrotation Yrotation Xrotation
                          }
                        }
                      }
                    }
                  }
                  JOINT LeftHandMiddle1
                  {
                    OFFSET 3.163612 0.945023 -0.406112
                    CHANNELS 3 Zrotation Yrotation Xrotation
                    JOINT LeftHandMiddle2
                    {
                      OFFSET 6.276789 3e-06 0.0
                      CHANNELS 3 Zrotation Yrotation Xrotation
                      JOINT LeftHandMiddle3
                      {
                        OFFSET 4.35652 -1e-06 4e-06
                        CHANNELS 3 Zrotation Yrotation Xrotation
                        JOINT LeftHandMiddle4
                        {
                          OFFSET 2.996877 0.0 8e-06
                          CHANNELS 3 Zrotation Yrotation Xrotation
                          JOINT LeftHandMiddleEnd
                          {
                            OFFSET 2.323256 3e-06 -4e-06
                            CHANNELS 3 Zrotation Yrotation Xrotation
                          }
                        }
                      }
                    }
                  }
                  JOINT LeftHandRing1
                  {
                    OFFSET 2.882606 -0.309162 0.107445
                    CHANNELS 3 Zrotation Yrotation Xrotation
                    JOINT LeftHandRing2
                    {
                      OFFSET 6.033198 0.0 4e-06
                      CHANNELS 3 Zrotation Yrotation Xrotation
                      JOINT LeftHandRing3
                      {
                        OFFSET 4.350578 3e-06 0.0
                        CHANNELS 3 Zrotation Yrotation Xrotation
                        JOINT LeftHandRing4
                        {
                          OFFSET 2.651321 2e-06 -7e-06
                          CHANNELS 3 Zrotation Yrotation Xrotation
                          JOINT LeftHandRingEnd
                          {
                            OFFSET 1.937663 1e-06 -4e-06
                            CHANNELS 3 Zrotation Yrotation Xrotation
                          }
                        }
                      }
                    }
                  }
                  JOINT LeftHandPinky1
                  {
                    OFFSET 2.865315 -1.525436 0.575687
                    CHANNELS 3 Zrotation Yrotation Xrotation
                    JOINT LeftHandPinky2
                    {
                      OFFSET 5.54936 1e-06 -8e-06
                      CHANNELS 3 Zrotation Yrotation Xrotation
                      JOINT LeftHandPinky3
                      {
                        OFFSET 3.070974 0.0 -4e-06
                        CHANNELS 3 Zrotation Yrotation Xrotation
                        JOINT LeftHandPinky4
                        {
                          OFFSET 1.549672 1e-06 0.0
                          CHANNELS 3 Zrotation Yrotation Xrotation
                          JOINT LeftHandPinkyEnd
                          {
                            OFFSET 1.952123 0.0 0.0
                            CHANNELS 3 Zrotation Yrotation Xrotation
                          }
                        }
                      }
                    }
                  }
                }
              }
            }
          }
          JOINT RightShoulder
          {
            OFFSET 23.161716 5.296122 -1.380114
            CHANNELS 3 Zrotation Yrotation Xrotation
            JOINT RightArm
            {
              OFFSET -16.027195 -2e-06 1.1e-05
              CHANNELS 3 Zrotation Yrotation Xrotation
              JOINT RightForeArm
              {
                OFFSET -28.736639 4e-06 2e-06
                CHANNELS 3 Zrotation Yrotation Xrotation
                JOINT RightHand
                {
                  OFFSET -27.133619 6e-06 0.0
                  CHANNELS 3 Zrotation Yrotation Xrotation
                  JOINT RightHandThumb1
                  {
                    OFFSET -2.274328 -3.351035 -0.83067
                    CHANNELS 3 Zrotation Yrotation Xrotation
                    JOINT RightHandThumb2
                    {
                      OFFSET -4.703594 -3e-06 2e-06
                      CHANNELS 3 Zrotation Yrotation Xrotation
                      JOINT RightHandThumb3
                      {
                        OFFSET -2.794935 -4e-06 -3e-06
                        CHANNELS 3 Zrotation Yrotation Xrotation
                        JOINT RightHandThumbEnd
                        {
                          OFFSET -3.183852 4e-06 1e-06
                          CHANNELS 3 Zrotation Yrotation Xrotation
                        }
                      }
                    }
                  }
                  JOINT RightHandIndex1
                  {
                    OFFSET -3.253496 -2.33755 -0.127667
                    CHANNELS 3 Zrotation Yrotation Xrotation
                    JOINT RightHandIndex2
                    {
                      OFFSET -6.344434 0.0 0.0
                      CHANNELS 3 Zrotation Yrotation Xrotation
                      JOINT RightHandIndex3
                      {
                        OFFSET -3.654871 0.0 -8e-06
                        CHANNELS 3 Zrotation Yrotation Xrotation
                        JOINT RightHandIndex4
                        {
                          OFFSET -2.327586 -1e-06 0.0
                          CHANNELS 3 Zrotation Yrotation Xrotation
                          JOINT RightHandIndexEnd
                          {
                            OFFSET -2.770001 3e-06 8e-06
                            CHANNELS 3 Zrotation Yrotation Xrotation
                          }
                        }
                      }
                    }
                  }
                  JOINT RightHandMiddle1
                  {
                    OFFSET -3.168223 -0.944764 0.411762
                    CHANNELS 3 Zrotation Yrotation Xrotation
                    JOINT RightHandMiddle2
                    {
                      OFFSET -6.266691 -1e-06 -4e-06
                      CHANNELS 3 Zrotation Yrotation Xrotation
                      JOINT RightHandMiddle3
                      {
                        OFFSET -4.348901 0.0 0.0
                        CHANNELS 3 Zrotation Yrotation Xrotation
                        JOINT RightHandMiddle4
                        {
                          OFFSET -3.00024 2e-06 -4e-06
                          CHANNELS 3 Zrotation Yrotation Xrotation
                          JOINT RightHandMiddleEnd
                          {
                            OFFSET -2.321477 -4e-06 -4e-06
                            CHANNELS 3 Zrotation Yrotation Xrotation
                          }
                        }
                      }
                    }
                  }
                  JOINT RightHandRing1
                  {
                    OFFSET -2.885654 0.293261 -0.119232
                    CHANNELS 3 Zrotation Yrotation Xrotation
                    JOINT RightHandRing2
                    {
                      OFFSET -6.032835 -1e-06 -4e-06
                      CHANNELS 3 Zrotation Yrotation Xrotation
                      JOINT RightHandRing3
                      {
                        OFFSET -4.33881 0.0 -4e-06
                        CHANNELS 3 Zrotation Yrotation Xrotation
                        JOINT RightHandRing4
                        {
                          OFFSET -2.654903 -4e-06 -4e-06
                          CHANNELS 3 Zrotation Yrotation Xrotation
                          JOINT RightHandRingEnd
                          {
                            OFFSET -1.935122 0.0 4e-06
                            CHANNELS 3 Zrotation Yrotation Xrotation
                          }
                        }
                      }
                    }
                  }
                  JOINT RightHandPinky1
                  {
                    OFFSET -2.866241 1.503904 -0.60527
                    CHANNELS 3 Zrotation Yrotation Xrotation
                    JOINT RightHandPinky2
                    {
                      OFFSET -5.553177 -2e-06 0.0
                      CHANNELS 3 Zrotation Yrotation Xrotation
                      JOINT RightHandPinky3
                      {
                        OFFSET -3.062664 -1e-06 -4e-06
                        CHANNELS 3 Zrotation Yrotation Xrotation
                        JOINT RightHandPinky4
                        {
                          OFFSET -1.546529 2e-06 4e-06
                          CHANNELS 3 Zrotation Yrotation Xrotation
                          JOINT RightHandPinkyEnd
                          {
                            OFFSET -1.952341 0.0 -4e-06
                            CHANNELS 3 Zrotation Yrotation Xrotation
                          }
                        }
                      }
                    }
                  }
                }
              }
            }
          }
        }
      }
    }
    JOINT LeftLeg
    {
      OFFSET -8.443107 2.567604 10.043214
      CHANNELS 3 Zrotation Yrotation Xrotation
      JOINT LeftShin
      {
        OFFSET 43.229198 1e-06 -1e-06
        CHANNELS 3 Zrotation Yrotation Xrotation
        JOINT LeftFoot
        {
          OFFSET 42.298611 1e-06 1e-06
          CHANNELS 3 Zrotation Yrotation Xrotation
          JOINT LeftToeBase
          {
            OFFSET 14.165858 1e-06 0.0
            CHANNELS 3 Zrotation Yrotation Xrotation
            JOINT LeftToeEnd
            {
              OFFSET 6.7141 -0.234461 0.0
              CHANNELS 3 Zrotation Yrotation Xrotation
            }
          }
        }
      }
    }
    JOINT RightLeg
    {
      OFFSET -8.303923 2.592729 -10.047278
      CHANNELS 3 Zrotation Yrotation Xrotation
      JOINT RightShin
      {
        OFFSET -43.369682 0.0 1e-06
        CHANNELS 3 Zrotation Yrotation Xrotation
        JOINT RightFoot
        {
          OFFSET -42.260784 4e-06 2e-06
          CHANNELS 3 Zrotation Yrotation Xrotation
          JOINT RightToeBase
          {
            OFFSET -14.222245 -2e-06 -1e-06
            CHANNELS 3 Zrotation Yrotation Xrotation
            JOINT RightToeEnd
            {
              OFFSET -6.660062 0.232574 -2e-06
              CHANNELS 3 Zrotation Yrotation Xrotation
            }
          }
        }
      }
    }
  }
}
MOTION
Frames: 4
Frame Time: 0.03333333333333333
0.0 0.0 0.0 0.0 -0.0 0.0 12.954333 49.338352 180.176926 76.948982 -63.112846 107.882477 8.55338 -1.795409 -0.331517 -5.092546 -1.623793 1.348991 21.134827 -4.897938 -1.807777 3.528264 -5.245399 2.594756 -2.560119 -0.417387 -0.91816 -23.111568 -1.318525 -1.541474 6e-06 1e-06 -0.0 -0.191956 -0.122147 0.042034 0.094037 0.070419 0.068869 0.12555 -0.326125 0.015065 -54.796661 -68.877663 60.983803 99.438156 -13.337368 -42.443169 14.499378 -0.748116 0.093421 73.253906 62.705181 71.612595 17.636633 -26.322723 52.411182 -19.466665 -14.395598 29.410389 -1e-06 -8.774824 -3e-06 14.595634 -18.419996 6.624245 -0.609778 -1.795654 -3.889328 -4.807085 -11.046809 -2.937851 6e-06 -20.976015 -3e-06 -5.019969 -25.033556 -4.031883 6e-06 -0.0 -2e-06 -10.634535 -5.686968 -3.565587 10.573278 -17.922949 -3.113902 2e-06 -13.82121 0.0 -0.501774 -31.181501 -4.027017 -10.750711 -58.351917 7.621439 -13.982718 -7.150197 -2.875041 13.772733 -8.401491 -3.218241 0.347736 -34.211544 0.771655 -0.963027 -17.73337 2.621018 0.0 -0.0 -1e-06 -17.346418 -20.095215 -4.201783 21.757561 -1.638379 3.866427 1e-06 -6.338824 1e-06 -1.697589 -22.591747 -6.194005 -0.0 -4e-06 -2e-06 -168.538132 -69.627487 -7.760217 65.529503 18.306137 -49.493488 7.047213 -1.533102 -0.161714 6.329979 43.923847 8.812966 22.182117 -20.375896 49.933319 -16.701815 -16.743528 28.47653 -2e-06 -12.690602 -1e-06 17.60894 -18.046581 1.986259 -0.10592 -1.513856 -4.275881 -5.039041 -5.61287 -2.953557 5e-06 -11.02052 -1e-06 -6.111297 -15.895334 -3.84047 -1e-06 -0.0 -1e-06 -10.283371 -5.680288 -4.341838 11.028295 -11.302402 -2.372632 -1.384268 -14.238578 -6.320121 -0.625436 -26.924187 -3.8276 -3.860841 -50.825165 -4.429399 -13.708525 -7.363475 -3.72094 18.14115 -14.052739 -3.242673 6e-06 -18.787271 -0.0 -0.429711 -8.45604 2.555504 -0.0 -1e-06 -0.0 -15.923536 -20.094479 -5.473587 30.41921 -7.190826 1.735928 3e-06 -8.162921 -0.0 -1.861901 -22.861467 -6.167941 -1e-06 -3e-06 -1e-06 88.898773 -11.529439 10.621753 127.51107 -0.433769 0.55967 -56.905037 26.971952 8.353857 -13.09582 1.045853 2.060738 -0.999999 2e-06 0.0 -50.279068 -0.244649 0.72499 85.851906 -0.009281 -0.329201 -32.472176 1.069634 7.409249 -11.840161 0.778163 1.464273 -1.000001 -0.0 -0.0 
0.0 0.0 0.0 0.0 -0.0 0.0 13.459092 48.899311 182.994736 78.296562 -62.813194 105.438362 8.386375 -2.153991 -0.280332 -5.260183 -1.764714 1.514835 21.475178 -5.192784 -1.728403 4.344279 -5.012311 2.470215 -2.56695 -0.433132 -0.654184 -23.403915 -1.314071 -1.053138 6e-06 1e-06 -0.0 -0.188001 -0.17502 0.06053 0.110555 0.000542 0.105158 0.147117 -0.362307 0.013302 -57.029453 -69.898033 63.832073 97.703865 -15.49608 -41.87878 15.059215 -0.723387 0.080543 75.682281 62.237926 74.300873 17.636623 -26.322721 52.411182 -19.466665 -14.395597 29.410389 -2e-06 -8.77482 0.0 14.585965 -18.307774 6.594881 -0.609775 -1.795654 -3.889328 -4.807085 -11.046809 -2.93785 5e-06 -20.976019 -1e-06 -5.019969 -25.033558 -4.031878 5e-06 -0.0 -2e-06 -10.634533 -5.686967 -3.565588 10.573275 -17.922947 -3.1139 2e-06 -13.821209 -0.0 -0.501776 -31.181498 -4.027013 -10.758348 -58.5569 7.722884 -13.982712 -7.150194 -2.875043 13.772728 -8.401493 -3.21824 0.347736 -34.211544 0.771654 -0.963028 -17.733366 2.621021 0.0 -0.0 -1e-06 -17.346413 -20.095211 -4.20178 21.757555 -1.638376 3.866426 1e-06 -6.338824 2e-06 -1.697588 -22.591743 -6.194005 1e-06 -3e-06 -2e-06 -171.109619 -69.769135 -5.136911 68.625175 16.848829 -49.070133 7.879396 -0.953354 -0.132733 6.77198 45.904922 9.64899 22.182117 -20.375895 49.933319 -16.701817 -16.743534 28.47653 -3e-06 -12.690603 -1e-06 17.798826 -18.239716 1.975362 -0.105919 -1.513854 -4.275882 -5.039041 -5.612871 -2.953556 5e-06 -11.02052 -2e-06 -6.1113 -15.895334 -3.84047 0.0 -0.0 -1e-06 -10.283371 -5.680286 -4.341838 11.028296 -11.302404 -2.372633 -1.384269 -14.238581 -6.320121 -0.625439 -26.924187 -3.8276 -3.991138 -51.231686 -4.369344 -13.708527 -7.363475 -3.720938 18.141153 -14.052737 -3.242676 6e-06 -18.78727 -1e-06 -0.429711 -8.456041 2.555504 0.0 -1e-06 0.0 -15.923538 -20.094482 -5.473583 30.419214 -7.190822 1.735925 2e-06 -8.162922 -0.0 -1.861903 -22.861465 -6.167941 -1e-06 -4e-06 -1e-06 85.898956 -11.640987 10.233248 128.4039 -0.239702 0.67156 -54.277081 29.292557 10.240503 -13.689262 1.01679 1.890875 -1.0 -0.0 -1e-06 -46.202721 -0.098171 1.240752 81.455872 -0.364768 -0.327688 -30.915403 0.606082 7.01631 -11.74606 0.808397 1.464149 -1.000002 -0.0 -1e-06 
0.0 0.0 0.0 0.0 -0.0 0.0 13.974558 48.227299 185.888596 79.776176 -62.375904 102.729584 8.134501 -2.4463 -0.172089 -5.490302 -1.92032 1.631848 21.803577 -5.442738 -1.798316 4.944428 -4.530264 2.321767 -2.592109 -0.355459 -0.395104 -23.577974 -1.327826 -0.53466 6e-06 1e-06 -1e-06 -0.181829 -0.220671 0.077568 0.113114 -0.059234 0.135185 0.150071 -0.392288 0.014462 -59.663643 -71.392181 67.204018 95.12204 -18.046757 -41.19767 15.626572 -0.521978 0.086413 77.040504 61.558281 75.630775 17.636637 -26.322729 52.411186 -19.466658 -14.395597 29.410389 -1e-06 -8.774822 -4e-06 14.691221 -18.258844 6.492952 -0.609776 -1.795652 -3.889326 -4.807088 -11.046814 -2.93785 2e-06 -20.976021 -1e-06 -5.019974 -25.033562 -4.031879 6e-06 -0.0 -1e-06 -10.634533 -5.68697 -3.565586 10.573276 -17.922955 -3.113901 1e-06 -13.821211 1e-06 -0.501776 -31.181511 -4.027017 -10.6121 -58.737614 7.614851 -13.982716 -7.150199 -2.875041 13.772729 -8.401492 -3.21824 0.347731 -34.211555 0.771654 -0.96303 -17.733376 2.621019 0.0 -0.0 0.0 -17.34642 -20.095219 -4.201782 21.757561 -1.638377 3.866429 1e-06 -6.338826 1e-06 -1.697592 -22.591751 -6.194005 0.0 -3e-06 -2e-06 -174.187027 -69.922775 -2.073619 72.584419 15.155766 -48.773792 8.550114 -0.604474 -0.107389 7.994828 48.226479 11.28302 22.182119 -20.375895 49.933323 -16.701813 -16.743528 28.47653 -2e-06 -12.690602 -1e-06 17.932188 -18.397572 2.016199 -0.10592 -1.513856 -4.275881 -5.039041 -5.612872 -2.953557 4e-06 -11.020525 -1e-06 -6.111297 -15.895336 -3.840471 -0.0 -0.0 -0.0 -10.283371 -5.680289 -4.341839 11.028293 -11.302406 -2.372631 -1.38427 -14.238583 -6.320123 -0.625441 -26.924191 -3.8276 -4.130392 -51.5555 -4.264039 -13.708526 -7.363476 -3.720939 18.14115 -14.052739 -3.242674 4e-06 -18.787271 -1e-06 -0.429713 -8.456044 2.555504 0.0 0.0 0.0 -15.923538 -20.094486 -5.473585 30.419214 -7.190827 1.735929 1e-06 -8.162925 0.0 -1.861904 -22.861469 -6.167942 0.0 -4e-06 -1e-06 84.820892 -11.830861 9.854476 128.303131 -0.058111 0.760736 -50.877819 30.956881 12.178127 -14.629498 1.031152 1.721591 -0.999998 -1e-06 0.0 -41.84515 -0.119001 1.750258 76.775253 -0.787063 -0.288183 -28.798933 0.370758 6.788788 -11.278281 0.822013 1.47363 -1.000004 -0.0 -0.0 
0.0 0.0 0.0 0.0 -0.0 0.0 14.451675 47.376995 188.787521 81.084648 -61.910618 100.287788 7.76075 -2.654418 -0.018513 -5.734042 -2.004189 1.617245 22.054201 -5.634357 -2.105586 5.395586 -3.65951 2.113521 -2.611062 -0.188587 -0.107803 -23.674845 -1.410796 -0.000238 4e-06 -1e-06 -1e-06 -0.177943 -0.235335 0.082354 0.071816 -0.087456 0.134748 0.109494 -0.391488 0.022743 -62.939648 -73.417992 71.371346 91.597183 -20.879847 -40.558662 16.268106 -0.200129 0.086705 77.642426 60.661293 75.995697 17.636621 -26.322733 52.411213 -19.466667 -14.3956 29.410398 -1e-06 -8.774822 1e-06 14.988584 -18.278643 6.336272 -0.609777 -1.795653 -3.889329 -4.807085 -11.04681 -2.93785 5e-06 -20.976019 -3e-06 -5.019968 -25.033558 -4.031884 6e-06 -0.0 -0.0 -10.634535 -5.68697 -3.565588 10.573277 -17.922951 -3.113904 3e-06 -13.821209 0.0 -0.501776 -31.181505 -4.027015 -10.392313 -58.885868 7.418908 -13.982716 -7.150197 -2.875043 13.772731 -8.401495 -3.218243 0.347735 -34.211552 0.771651 -0.963028 -17.73337 2.621018 0.0 0.0 -0.0 -17.346416 -20.095217 -4.201785 21.757559 -1.638375 3.866427 2e-06 -6.338826 1e-06 -1.697588 -22.591745 -6.194008 -1e-06 -4e-06 -0.0 -178.322769 -70.063271 1.898917 77.46312 13.055068 -48.545933 9.041828 -0.474988 -0.102178 10.304116 51.069012 13.938635 22.182117 -20.375895 49.933319 -16.701815 -16.743526 28.476534 -1e-06 -12.690601 -1e-06 17.955292 -18.432322 2.107308 -0.10592 -1.513856 -4.27588 -5.039041 -5.612872 -2.953557 4e-06 -11.020524 -2e-06 -6.111296 -15.89533 -3.840471 0.0 -1e-06 0.0 -10.283369 -5.680287 -4.341839 11.028295 -11.302408 -2.372632 -1.384268 -14.23858 -6.320122 -0.625439 -26.924192 -3.827599 -4.260496 -51.694862 -4.159584 -13.708524 -7.363475 -3.720941 18.141146 -14.052741 -3.242674 7e-06 -18.78727 -2e-06 -0.429711 -8.456043 2.555504 -0.0 -0.0 0.0 -15.923532 -20.094482 -5.473586 30.419207 -7.190827 1.735927 3e-06 -8.162924 -1e-06 -1.861902 -22.861473 -6.167943 0.0 -3e-06 -1e-06 85.855988 -11.925731 9.761092 127.826363 0.095677 0.83403 -47.955574 31.69383 13.710148 -15.347258 1.055193 1.594391 -0.999998 -0.0 -0.0 -37.339539 -0.306577 2.137635 72.206032 -1.19297 -0.211829 -28.046366 0.239153 6.64716 -10.504148 0.836053 1.4747 -1.000003 -1e-06 -0.0 
